<?xml version="1.0" encoding="ISO-8859-1" standalone="no"?><svg xmlns="http://www.w3.org/2000/svg" version="1.1" xmlns:xlink="http://www.w3.org/1999/xlink"  >
<g  >
<circle cy="1045" cx="0.0" r="57.3103878942" style="stroke:black; stroke-width:1; fill:white; "  />
<circle cy="1045" cx="0.0" r="45.7228581235" style="stroke:black; stroke-width:1; fill:#ccccdc; "  />
<circle cy="1045" cx="0.0" r="9.53714055559" style="stroke:black; stroke-width:1; fill:#ffcc00; "  />
<path style="stroke:black; stroke-width:1; fill:red; " d="M -72.310388 1060.000000 a 57.310388,57.310388 0 0,0 13.531705,36.985233 L -15.0  1060 z"  />
<path style="stroke:black; stroke-width:1; fill:lime; " d="M -57.310388 1045.000000 a 57.310388,57.310388 0 0,1 38.395202,-54.098949 L 0.0  1045 z"  />
<path style="stroke:black; stroke-width:1; fill:blue; " d="M -57.310388 1045.000000 a 57.310388,57.310388 0 0,1 26.617859,-48.398856 L 0.0  1045 z"  />
<path style="stroke:black; stroke-width:1; fill:cyan; " d="M -57.310388 1045.000000 a 57.310388,57.310388 0 0,1 3.198494,-18.878122 L 0.0  1045 z"  />
</g>
<g  >
<circle cy="588" cx="237.0" r="57.5411145062" style="stroke:black; stroke-width:1; fill:white; "  />
<circle cy="588" cx="237.0" r="47.4523353995" style="stroke:black; stroke-width:1; fill:#ccccdc; "  />
<circle cy="588" cx="237.0" r="0.846284375322" style="stroke:black; stroke-width:1; fill:#ffcc00; "  />
<path style="stroke:black; stroke-width:1; fill:red; " d="M 164.458885 603.000000 a 57.541115,57.541115 0 0,0 0.641854,8.570534 L 222.0  603 z"  />
<path style="stroke:black; stroke-width:1; fill:lime; " d="M 179.458885 588.000000 a 57.541115,57.541115 0 0,1 3.315827,-19.250923 L 237.0  588 z"  />
<path style="stroke:black; stroke-width:1; fill:blue; " d="M 179.458885 588.000000 a 57.541115,57.541115 0 0,1 1.144590,-11.419800 L 237.0  588 z"  />
<path style="stroke:black; stroke-width:1; fill:cyan; " d="M 179.458885 588.000000 a 57.541115,57.541115 0 0,1 0.065090,-2.736141 L 237.0  588 z"  />
</g>
<g  >
<circle cy="212" cx="1067.75" r="57.4850770498" style="stroke:black; stroke-width:1; fill:white; "  />
<circle cy="212" cx="1067.75" r="52.1890612926" style="stroke:black; stroke-width:1; fill:#ccccdc; "  />
<circle cy="212" cx="1067.75" r="4.86153361082" style="stroke:black; stroke-width:1; fill:#ffcc00; "  />
<path style="stroke:black; stroke-width:1; fill:red; " d="M 995.264923 227.000000 a 57.485077,57.485077 0 0,0 2.724710,17.488177 L 1052.75  227 z"  />
<path style="stroke:black; stroke-width:1; fill:lime; " d="M 1010.264923 212.000000 a 57.485077,57.485077 0 0,1 23.943662,-46.685196 L 1067.75  212 z"  />
<path style="stroke:black; stroke-width:1; fill:blue; " d="M 1010.264923 212.000000 a 57.485077,57.485077 0 0,1 2.514495,-16.815744 L 1067.75  212 z"  />
<path style="stroke:black; stroke-width:1; fill:cyan; " d="M 1010.264923 212.000000 a 57.485077,57.485077 0 0,1 0.007675,-0.939332 L 1067.75  212 z"  />
</g>
<g  >
<circle cy="125" cx="2080.25" r="59.2399062725" style="stroke:black; stroke-width:1; fill:white; "  />
<circle cy="125" cx="2080.25" r="54.5771411622" style="stroke:black; stroke-width:1; fill:#ccccdc; "  />
<circle cy="125" cx="2080.25" r="6.44510978549" style="stroke:black; stroke-width:1; fill:#ffcc00; "  />
<path style="stroke:black; stroke-width:1; fill:red; " d="M 2006.010094 140.000000 a 59.239906,59.239906 0 0,0 0.588325,8.328174 L 2065.25  140 z"  />
<path style="stroke:black; stroke-width:1; fill:lime; " d="M 2021.010094 125.000000 a 59.239906,59.239906 0 0,1 19.469130,-43.905033 L 2080.25  125 z"  />
<path style="stroke:black; stroke-width:1; fill:blue; " d="M 2021.010094 125.000000 a 59.239906,59.239906 0 0,1 7.474643,-28.804931 L 2080.25  125 z"  />
<path style="stroke:black; stroke-width:1; fill:cyan; " d="M 2021.010094 125.000000 a 59.239906,59.239906 0 0,1 0.003945,-0.683646 L 2080.25  125 z"  />
</g>
<g  >
<circle cy="50" cx="2239.25" r="59.0340222997" style="stroke:black; stroke-width:1; fill:white; "  />
<circle cy="50" cx="2239.25" r="55.326548966" style="stroke:black; stroke-width:1; fill:#ccccdc; "  />
<circle cy="50" cx="2239.25" r="4.63529042428" style="stroke:black; stroke-width:1; fill:#ffcc00; "  />
<path style="stroke:black; stroke-width:1; fill:red; " d="M 2165.215978 65.000000 a 59.034022,59.034022 0 0,0 0.531498,7.903826 L 2224.25  65 z"  />
<path style="stroke:black; stroke-width:1; fill:lime; " d="M 2180.215978 50.000000 a 59.034022,59.034022 0 0,1 0.416057,-6.996422 L 2239.25  50 z"  />
<path style="stroke:black; stroke-width:1; fill:blue; " d="M 2180.215978 50.000000 a 59.034022,59.034022 0 0,1 0.240984,-5.328644 L 2239.25  50 z"  />
<path style="stroke:black; stroke-width:1; fill:cyan; " d="M 2180.215978 50.000000 a 59.034022,59.034022 0 0,1 0.001230,-0.381134 L 2239.25  50 z"  />
</g>
<g  >
<circle cy="0" cx="2519.0" r="63.5502656047" style="stroke:black; stroke-width:1; fill:#ccccdc; "  />
<circle cy="0" cx="2519.0" r="19.8831807979" style="stroke:black; stroke-width:1; fill:#ffcc00; "  />
<path style="stroke:black; stroke-width:1; fill:red; " d="M 2440.449734 15.000000 a 63.550266,63.550266 0 0,0 1.634679,14.321188 L 2504.0  15 z"  />
<path style="stroke:black; stroke-width:1; fill:lime; " d="M 2455.449734 0.000000 a 63.550266,63.550266 0 0,1 62.364265,-63.539198 L 2519.0  0 z"  />
<path style="stroke:black; stroke-width:1; fill:blue; " d="M 2455.449734 0.000000 a 63.550266,63.550266 0 0,1 34.080909,-56.304469 L 2519.0  0 z"  />
<path style="stroke:black; stroke-width:1; fill:cyan; " d="M 2455.449734 0.000000 a 63.550266,63.550266 0 0,1 0.007732,-0.991301 L 2519.0  0 z"  />
</g>
<g  >
<circle cy="100" cx="2525.75" r="62.9615100284" style="stroke:black; stroke-width:1; fill:#ccccdc; "  />
<circle cy="100" cx="2525.75" r="22.2783457652" style="stroke:black; stroke-width:1; fill:#ffcc00; "  />
<path style="stroke:black; stroke-width:1; fill:red; " d="M 2447.788490 115.000000 a 62.961510,62.961510 0 0,0 3.198571,19.812693 L 2510.75  115 z"  />
<path style="stroke:black; stroke-width:1; fill:lime; " d="M 2462.788490 100.000000 a 62.961510,62.961510 0 0,1 64.480148,-62.943193 L 2525.75  100 z"  />
<path style="stroke:black; stroke-width:1; fill:blue; " d="M 2462.788490 100.000000 a 62.961510,62.961510 0 0,1 33.260979,-55.516036 L 2525.75  100 z"  />
<path style="stroke:black; stroke-width:1; fill:cyan; " d="M 2462.788490 100.000000 a 62.961510,62.961510 0 0,1 0.000649,-0.285888 L 2525.75  100 z"  />
</g>
<g  >
<circle cy="200" cx="2358.75" r="63.2848717148" style="stroke:black; stroke-width:1; fill:#ccccdc; "  />
<circle cy="200" cx="2358.75" r="19.7204235108" style="stroke:black; stroke-width:1; fill:#ffcc00; "  />
<path style="stroke:black; stroke-width:1; fill:red; " d="M 2280.465128 215.000000 a 63.284872,63.284872 0 0,0 0.593656,8.647916 L 2343.75  215 z"  />
<path style="stroke:black; stroke-width:1; fill:lime; " d="M 2295.465128 200.000000 a 63.284872,63.284872 0 0,1 30.540534,-54.155178 L 2358.75  200 z"  />
<path style="stroke:black; stroke-width:1; fill:blue; " d="M 2295.465128 200.000000 a 63.284872,63.284872 0 0,1 24.674918,-50.142262 L 2358.75  200 z"  />
<path style="stroke:black; stroke-width:1; fill:cyan; " d="M 2295.465128 200.000000 a 63.284872,63.284872 0 0,1 0.000639,-0.284427 L 2358.75  200 z"  />
</g>
<g  >
<circle cy="300" cx="2169.75" r="66.3078794744" style="stroke:black; stroke-width:1; fill:#ccccdc; "  />
<circle cy="300" cx="2169.75" r="26.4387690723" style="stroke:black; stroke-width:1; fill:#ffcc00; "  />
<path style="stroke:black; stroke-width:1; fill:red; " d="M 2088.442121 315.000000 a 66.307879,66.307879 0 0,0 1.828727,15.465244 L 2154.75  315 z"  />
<path style="stroke:black; stroke-width:1; fill:lime; " d="M 2103.442121 300.000000 a 66.307879,66.307879 0 0,1 96.218881,-59.178263 L 2169.75  300 z"  />
<path style="stroke:black; stroke-width:1; fill:blue; " d="M 2103.442121 300.000000 a 66.307879,66.307879 0 0,1 81.128927,-64.630267 L 2169.75  300 z"  />
<path style="stroke:black; stroke-width:1; fill:cyan; " d="M 2103.442121 300.000000 a 66.307879,66.307879 0 0,1 0.012537,-1.289358 L 2169.75  300 z"  />
</g>
<g  >
<circle cy="965" cx="523.25" r="57.0536280493" style="stroke:black; stroke-width:1; fill:white; "  />
<circle cy="965" cx="523.25" r="48.6742281178" style="stroke:black; stroke-width:1; fill:#ccccdc; "  />
<circle cy="965" cx="523.25" r="0.846284375322" style="stroke:black; stroke-width:1; fill:#ffcc00; "  />
<path style="stroke:black; stroke-width:1; fill:red; " d="M 451.196372 980.000000 a 57.053628,57.053628 0 0,0 0.890906,10.043160 L 508.25  980 z"  />
<path style="stroke:black; stroke-width:1; fill:lime; " d="M 466.196372 965.000000 a 57.053628,57.053628 0 0,1 0.849736,-9.810150 L 523.25  965 z"  />
<path style="stroke:black; stroke-width:1; fill:blue; " d="M 466.196372 965.000000 a 57.053628,57.053628 0 0,1 0.136242,-3.940518 L 523.25  965 z"  />
<path style="stroke:black; stroke-width:1; fill:cyan; " d="M 466.196372 965.000000 a 57.053628,57.053628 0 0,1 0.001363,-0.394363 L 523.25  965 z"  />
</g>
<g  >
<circle cy="731" cx="785.0" r="57.0473511773" style="stroke:black; stroke-width:1; fill:white; "  />
<circle cy="731" cx="785.0" r="49.5492093997" style="stroke:black; stroke-width:1; fill:#ccccdc; "  />
<circle cy="731" cx="785.0" r="1.69256875064" style="stroke:black; stroke-width:1; fill:#ffcc00; "  />
<path style="stroke:black; stroke-width:1; fill:red; " d="M 712.952649 746.000000 a 57.047351,57.047351 0 0,0 1.005741,10.664812 L 770.0  746 z"  />
<path style="stroke:black; stroke-width:1; fill:lime; " d="M 727.952649 731.000000 a 57.047351,57.047351 0 0,1 4.222531,-21.539234 L 785.0  731 z"  />
<path style="stroke:black; stroke-width:1; fill:blue; " d="M 727.952649 731.000000 a 57.047351,57.047351 0 0,1 0.991048,-10.587310 L 785.0  731 z"  />
<path style="stroke:black; stroke-width:1; fill:cyan; " d="M 727.952649 731.000000 a 57.047351,57.047351 0 0,1 0.006599,-0.867667 L 785.0  731 z"  />
</g>
<g  >
<circle cy="512" cx="1181.0" r="56.5872589682" style="stroke:black; stroke-width:1; fill:white; "  />
<circle cy="512" cx="1181.0" r="50.4728996254" style="stroke:black; stroke-width:1; fill:#ccccdc; "  />
<circle cy="512" cx="1181.0" r="1.1968268412" style="stroke:black; stroke-width:1; fill:#ffcc00; "  />
<path style="stroke:black; stroke-width:1; fill:red; " d="M 1109.412741 527.000000 a 56.587259,56.587259 0 0,0 0.941711,10.280605 L 1166.0  527 z"  />
<path style="stroke:black; stroke-width:1; fill:lime; " d="M 1124.412741 512.000000 a 56.587259,56.587259 0 0,1 2.377470,-16.230114 L 1181.0  512 z"  />
<path style="stroke:black; stroke-width:1; fill:blue; " d="M 1124.412741 512.000000 a 56.587259,56.587259 0 0,1 0.181450,-4.527977 L 1181.0  512 z"  />
<path style="stroke:black; stroke-width:1; fill:cyan; " d="M 1124.412741 512.000000 a 56.587259,56.587259 0 0,1 0.000503,-0.238569 L 1181.0  512 z"  />
</g>
<g  >
<circle cy="400" cx="2594.25" r="56.7830960066" style="stroke:black; stroke-width:1; fill:#ccccdc; "  />
<circle cy="400" cx="2594.25" r="15.581747838" style="stroke:black; stroke-width:1; fill:#ffcc00; "  />
<path style="stroke:black; stroke-width:1; fill:red; " d="M 2522.466904 415.000000 a 56.783096,56.783096 0 0,0 14.098925,37.448385 L 2579.25  415 z"  />
<path style="stroke:black; stroke-width:1; fill:lime; " d="M 2537.466904 400.000000 a 56.783096,56.783096 0 0,1 60.465585,-56.663562 L 2594.25  400 z"  />
<path style="stroke:black; stroke-width:1; fill:blue; " d="M 2537.466904 400.000000 a 56.783096,56.783096 0 0,1 15.758565,-39.259493 L 2594.25  400 z"  />
<path style="stroke:black; stroke-width:1; fill:cyan; " d="M 2537.466904 400.000000 a 56.783096,56.783096 0 0,1 0.000055,-0.079249 L 2594.25  400 z"  />
</g>
<g  >
<circle cy="625" cx="1616.25" r="58.8578462808" style="stroke:black; stroke-width:1; fill:white; "  />
<circle cy="625" cx="1616.25" r="53.0735693195" style="stroke:black; stroke-width:1; fill:#ccccdc; "  />
<circle cy="625" cx="1616.25" r="3.68886806952" style="stroke:black; stroke-width:1; fill:#ffcc00; "  />
<path style="stroke:black; stroke-width:1; fill:red; " d="M 1542.392154 640.000000 a 58.857846,58.857846 0 0,0 0.196979,4.811315 L 1601.25  640 z"  />
<path style="stroke:black; stroke-width:1; fill:lime; " d="M 1557.392154 625.000000 a 58.857846,58.857846 0 0,1 22.520342,-46.301532 L 1616.25  625 z"  />
<path style="stroke:black; stroke-width:1; fill:blue; " d="M 1557.392154 625.000000 a 58.857846,58.857846 0 0,1 8.904886,-31.127926 L 1616.25  625 z"  />
<path style="stroke:black; stroke-width:1; fill:cyan; " d="M 1557.392154 625.000000 a 58.857846,58.857846 0 0,1 0.003178,-0.611632 L 1616.25  625 z"  />
</g>
<g  >
<circle cy="550" cx="1763.75" r="59.4028940437" style="stroke:black; stroke-width:1; fill:white; "  />
<circle cy="550" cx="1763.75" r="54.701664372" style="stroke:black; stroke-width:1; fill:#ccccdc; "  />
<circle cy="550" cx="1763.75" r="6.10264341769" style="stroke:black; stroke-width:1; fill:#ffcc00; "  />
<path style="stroke:black; stroke-width:1; fill:red; " d="M 1689.347106 565.000000 a 59.402894,59.402894 0 0,0 0.243328,5.371180 L 1748.75  565 z"  />
<path style="stroke:black; stroke-width:1; fill:lime; " d="M 1704.347106 550.000000 a 59.402894,59.402894 0 0,1 2.515095,-17.102111 L 1763.75  550 z"  />
<path style="stroke:black; stroke-width:1; fill:blue; " d="M 1704.347106 550.000000 a 59.402894,59.402894 0 0,1 1.247664,-12.110867 L 1763.75  550 z"  />
<path style="stroke:black; stroke-width:1; fill:cyan; " d="M 1704.347106 550.000000 a 59.402894,59.402894 0 0,1 0.000048,-0.075754 L 1763.75  550 z"  />
</g>
<g  >
<circle cy="500" cx="2386.75" r="60.9207199396" style="stroke:black; stroke-width:1; fill:#ccccdc; "  />
<circle cy="500" cx="2386.75" r="18.2098688609" style="stroke:black; stroke-width:1; fill:#ffcc00; "  />
<path style="stroke:black; stroke-width:1; fill:red; " d="M 2310.829280 515.000000 a 60.920720,60.920720 0 0,0 8.131078,30.407036 L 2371.75  515 z"  />
<path style="stroke:black; stroke-width:1; fill:lime; " d="M 2325.829280 500.000000 a 60.920720,60.920720 0 0,1 38.043116,-56.461928 L 2386.75  500 z"  />
<path style="stroke:black; stroke-width:1; fill:blue; " d="M 2325.829280 500.000000 a 60.920720,60.920720 0 0,1 19.886725,-45.028273 L 2386.75  500 z"  />
<path style="stroke:black; stroke-width:1; fill:cyan; " d="M 2325.829280 500.000000 a 60.920720,60.920720 0 0,1 0.001120,-0.369330 L 2386.75  500 z"  />
</g>
<g  >
<circle cy="600" cx="2265.75" r="65.776496946" style="stroke:black; stroke-width:1; fill:#ccccdc; "  />
<circle cy="600" cx="2265.75" r="24.7601462191" style="stroke:black; stroke-width:1; fill:#ffcc00; "  />
<path style="stroke:black; stroke-width:1; fill:red; " d="M 2184.973503 615.000000 a 65.776497,65.776497 0 0,0 1.577626,14.319654 L 2250.75  615 z"  />
<path style="stroke:black; stroke-width:1; fill:lime; " d="M 2199.973503 600.000000 a 65.776497,65.776497 0 0,1 74.287153,-65.223587 L 2265.75  600 z"  />
<path style="stroke:black; stroke-width:1; fill:blue; " d="M 2199.973503 600.000000 a 65.776497,65.776497 0 0,1 53.181168,-64.559316 L 2265.75  600 z"  />
<path style="stroke:black; stroke-width:1; fill:cyan; " d="M 2199.973503 600.000000 a 65.776497,65.776497 0 0,1 0.111541,-3.828990 L 2265.75  600 z"  />
</g>
<g  >
<circle cy="700" cx="2209.0" r="63.8089439785" style="stroke:black; stroke-width:1; fill:#ccccdc; "  />
<circle cy="700" cx="2209.0" r="18.7333032196" style="stroke:black; stroke-width:1; fill:#ffcc00; "  />
<path style="stroke:black; stroke-width:1; fill:red; " d="M 2130.191056 715.000000 a 63.808944,63.808944 0 0,0 1.272503,12.679702 L 2194.0  715 z"  />
<path style="stroke:black; stroke-width:1; fill:lime; " d="M 2145.191056 700.000000 a 63.808944,63.808944 0 0,1 56.193025,-63.352815 L 2209.0  700 z"  />
<path style="stroke:black; stroke-width:1; fill:blue; " d="M 2145.191056 700.000000 a 63.808944,63.808944 0 0,1 37.004677,-57.906067 L 2209.0  700 z"  />
<path style="stroke:black; stroke-width:1; fill:cyan; " d="M 2145.191056 700.000000 a 63.808944,63.808944 0 0,1 0.001910,-0.493656 L 2209.0  700 z"  />
</g>
<g  >
<circle cy="950" cx="2018.25" r="57.5348908174" style="stroke:black; stroke-width:1; fill:white; "  />
<circle cy="950" cx="2018.25" r="53.8039892564" style="stroke:black; stroke-width:1; fill:#ccccdc; "  />
<circle cy="950" cx="2018.25" r="3.78469878303" style="stroke:black; stroke-width:1; fill:#ffcc00; "  />
<path style="stroke:black; stroke-width:1; fill:red; " d="M 1945.715109 965.000000 a 57.534891,57.534891 0 0,0 0.855322,9.883832 L 2003.25  965 z"  />
<path style="stroke:black; stroke-width:1; fill:lime; " d="M 1960.715109 950.000000 a 57.534891,57.534891 0 0,1 28.474429,-49.656351 L 2018.25  950 z"  />
<path style="stroke:black; stroke-width:1; fill:blue; " d="M 1960.715109 950.000000 a 57.534891,57.534891 0 0,1 2.219711,-15.827018 L 2018.25  950 z"  />
<path style="stroke:black; stroke-width:1; fill:cyan; " d="M 1960.715109 950.000000 a 57.534891,57.534891 0 0,1 0.002605,-0.547486 L 2018.25  950 z"  />
</g>
<g  >
<circle cy="850" cx="2129.5" r="58.3261254378" style="stroke:black; stroke-width:1; fill:white; "  />
<circle cy="850" cx="2129.5" r="56.0212131503" style="stroke:black; stroke-width:1; fill:#ccccdc; "  />
<circle cy="850" cx="2129.5" r="6.60969226808" style="stroke:black; stroke-width:1; fill:#ffcc00; "  />
<path style="stroke:black; stroke-width:1; fill:red; " d="M 2056.173875 865.000000 a 58.326125,58.326125 0 0,0 0.228913,5.162446 L 2114.5  865 z"  />
<path style="stroke:black; stroke-width:1; fill:lime; " d="M 2071.173875 850.000000 a 58.326125,58.326125 0 0,1 2.364594,-16.439098 L 2129.5  850 z"  />
<path style="stroke:black; stroke-width:1; fill:blue; " d="M 2071.173875 850.000000 a 58.326125,58.326125 0 0,1 1.929592,-14.878440 L 2129.5  850 z"  />
<path style="stroke:black; stroke-width:1; fill:cyan; " d="M 2071.173875 850.000000 a 58.326125,58.326125 0 0,1 0.000459,-0.231457 L 2129.5  850 z"  />
</g>
<g  >
<circle cy="800" cx="2321.75" r="64.8664690575" style="stroke:black; stroke-width:1; fill:#ccccdc; "  />
<circle cy="800" cx="2321.75" r="21.275259297" style="stroke:black; stroke-width:1; fill:#ffcc00; "  />
<path style="stroke:black; stroke-width:1; fill:red; " d="M 2241.883531 815.000000 a 64.866469,64.866469 0 0,0 0.261578,5.819521 L 2306.75  815 z"  />
<path style="stroke:black; stroke-width:1; fill:lime; " d="M 2256.883531 800.000000 a 64.866469,64.866469 0 0,1 82.555212,-62.408070 L 2321.75  800 z"  />
<path style="stroke:black; stroke-width:1; fill:blue; " d="M 2256.883531 800.000000 a 64.866469,64.866469 0 0,1 47.077633,-62.379613 L 2321.75  800 z"  />
<path style="stroke:black; stroke-width:1; fill:cyan; " d="M 2256.883531 800.000000 a 64.866469,64.866469 0 0,1 0.005342,-0.832457 L 2321.75  800 z"  />
</g>
<g  >
<circle cy="900" cx="2358.25" r="61.7845555949" style="stroke:black; stroke-width:1; fill:#ccccdc; "  />
<circle cy="900" cx="2358.25" r="16.9256875064" style="stroke:black; stroke-width:1; fill:#ffcc00; "  />
<path style="stroke:black; stroke-width:1; fill:red; " d="M 2281.465444 915.000000 a 61.784556,61.784556 0 0,0 1.432097,13.225433 L 2343.25  915 z"  />
<path style="stroke:black; stroke-width:1; fill:lime; " d="M 2296.465444 900.000000 a 61.784556,61.784556 0 0,1 62.257970,-61.782742 L 2358.25  900 z"  />
<path style="stroke:black; stroke-width:1; fill:blue; " d="M 2296.465444 900.000000 a 61.784556,61.784556 0 0,1 23.352064,-48.376388 L 2358.25  900 z"  />
<path style="stroke:black; stroke-width:1; fill:cyan; " d="M 2296.465444 900.000000 a 61.784556,61.784556 0 0,1 0.000043,-0.072834 L 2358.25  900 z"  />
</g>
<g  >
<circle cy="1050" cx="2156.75" r="57.7213095718" style="stroke:black; stroke-width:1; fill:white; "  />
<circle cy="1050" cx="2156.75" r="55.7199699602" style="stroke:black; stroke-width:1; fill:#ccccdc; "  />
<circle cy="1050" cx="2156.75" r="4.86153361082" style="stroke:black; stroke-width:1; fill:#ffcc00; "  />
<path style="stroke:black; stroke-width:1; fill:red; " d="M 2084.028690 1065.000000 a 57.721310,57.721310 0 0,0 0.484530,7.463284 L 2141.75  1065 z"  />
<path style="stroke:black; stroke-width:1; fill:lime; " d="M 2099.028690 1050.000000 a 57.721310,57.721310 0 0,1 1.660098,-13.743730 L 2156.75  1050 z"  />
<path style="stroke:black; stroke-width:1; fill:blue; " d="M 2099.028690 1050.000000 a 57.721310,57.721310 0 0,1 0.833833,-9.775715 L 2156.75  1050 z"  />
<path style="stroke:black; stroke-width:1; fill:cyan; " d="M 2099.028690 1050.000000 a 57.721310,57.721310 0 0,1 0.001316,-0.389801 L 2156.75  1050 z"  />
</g>
<g  >
<circle cy="1000" cx="2288.0" r="64.8388604293" style="stroke:black; stroke-width:1; fill:#ccccdc; "  />
<circle cy="1000" cx="2288.0" r="22.1008262368" style="stroke:black; stroke-width:1; fill:#ffcc00; "  />
<path style="stroke:black; stroke-width:1; fill:red; " d="M 2208.161140 1015.000000 a 64.838860,64.838860 0 0,0 0.152082,4.438307 L 2273.0  1015 z"  />
<path style="stroke:black; stroke-width:1; fill:lime; " d="M 2223.161140 1000.000000 a 64.838860,64.838860 0 0,1 73.866504,-64.207316 L 2288.0  1000 z"  />
<path style="stroke:black; stroke-width:1; fill:blue; " d="M 2223.161140 1000.000000 a 64.838860,64.838860 0 0,1 52.049064,-63.564919 L 2288.0  1000 z"  />
<path style="stroke:black; stroke-width:1; fill:cyan; " d="M 2223.161140 1000.000000 a 64.838860,64.838860 0 0,1 0.006277,-0.902208 L 2288.0  1000 z"  />
</g>
<g  >
<circle cy="1100" cx="2294.0" r="59.7155430139" style="stroke:black; stroke-width:1; fill:#ccccdc; "  />
<circle cy="1100" cx="2294.0" r="14.9243875203" style="stroke:black; stroke-width:1; fill:#ffcc00; "  />
<path style="stroke:black; stroke-width:1; fill:red; " d="M 2219.284457 1115.000000 a 59.715543,59.715543 0 0,0 1.124105,11.532108 L 2279.0  1115 z"  />
<path style="stroke:black; stroke-width:1; fill:lime; " d="M 2234.284457 1100.000000 a 59.715543,59.715543 0 0,1 25.052952,-48.625620 L 2294.0  1100 z"  />
<path style="stroke:black; stroke-width:1; fill:blue; " d="M 2234.284457 1100.000000 a 59.715543,59.715543 0 0,1 10.667130,-34.061698 L 2294.0  1100 z"  />
<path style="stroke:black; stroke-width:1; fill:cyan; " d="M 2234.284457 1100.000000 a 59.715543,59.715543 0 0,1 0.001189,-0.376784 L 2294.0  1100 z"  />
</g>
<g  >
<circle cy="1200" cx="3017.5" r="65.6238830583" style="stroke:black; stroke-width:1; fill:#ccccdc; "  />
<circle cy="1200" cx="3017.5" r="29.8007480183" style="stroke:black; stroke-width:1; fill:#ffcc00; "  />
<path style="stroke:black; stroke-width:1; fill:red; " d="M 2936.876117 1215.000000 a 65.623883,65.623883 0 0,0 5.902492,27.200174 L 3002.5  1215 z"  />
<path style="stroke:black; stroke-width:1; fill:lime; " d="M 2951.876117 1200.000000 a 65.623883,65.623883 0 0,1 129.869262,-13.380033 L 3017.5  1200 z"  />
<path style="stroke:black; stroke-width:1; fill:blue; " d="M 2951.876117 1200.000000 a 65.623883,65.623883 0 0,1 90.606332,-60.682545 L 3017.5  1200 z"  />
<path style="stroke:black; stroke-width:1; fill:cyan; " d="M 2951.876117 1200.000000 a 65.623883,65.623883 0 0,1 0.100612,-3.632490 L 3017.5  1200 z"  />
</g>
<g  >
<circle cy="1503" cx="349.25" r="56.7073683499" style="stroke:black; stroke-width:1; fill:white; "  />
<circle cy="1503" cx="349.25" r="49.3319190263" style="stroke:black; stroke-width:1; fill:#ccccdc; "  />
<circle cy="1503" cx="349.25" r="0.846284375322" style="stroke:black; stroke-width:1; fill:#ffcc00; "  />
<path style="stroke:black; stroke-width:1; fill:red; " d="M 277.542632 1518.000000 a 56.707368,56.707368 0 0,0 2.666177,17.183576 L 334.25  1518 z"  />
<path style="stroke:black; stroke-width:1; fill:lime; " d="M 292.542632 1503.000000 a 56.707368,56.707368 0 0,1 5.556918,-24.481769 L 349.25  1503 z"  />
<path style="stroke:black; stroke-width:1; fill:blue; " d="M 292.542632 1503.000000 a 56.707368,56.707368 0 0,1 0.851589,-9.790685 L 349.25  1503 z"  />
<path style="stroke:black; stroke-width:1; fill:cyan; " d="M 292.542632 1503.000000 a 56.707368,56.707368 0 0,1 0.007995,-0.952212 L 349.25  1503 z"  />
</g>
<g  >
<circle cy="1300" cx="2278.25" r="62.0621364261" style="stroke:black; stroke-width:1; fill:#ccccdc; "  />
<circle cy="1300" cx="2278.25" r="21.0382959562" style="stroke:black; stroke-width:1; fill:#ffcc00; "  />
<path style="stroke:black; stroke-width:1; fill:red; " d="M 2201.187864 1315.000000 a 62.062136,62.062136 0 0,0 3.291202,19.942068 L 2263.25  1315 z"  />
<path style="stroke:black; stroke-width:1; fill:lime; " d="M 2216.187864 1300.000000 a 62.062136,62.062136 0 0,1 103.754789,-45.972073 L 2278.25  1300 z"  />
<path style="stroke:black; stroke-width:1; fill:blue; " d="M 2216.187864 1300.000000 a 62.062136,62.062136 0 0,1 49.354981,-60.747321 L 2278.25  1300 z"  />
<path style="stroke:black; stroke-width:1; fill:cyan; " d="M 2216.187864 1300.000000 a 62.062136,62.062136 0 0,1 0.000678,-0.290031 L 2278.25  1300 z"  />
</g>
<g  >
<circle cy="1706" cx="724.5" r="56.5872589682" style="stroke:black; stroke-width:1; fill:white; "  />
<circle cy="1706" cx="724.5" r="50.052551975" style="stroke:black; stroke-width:1; fill:#ccccdc; "  />
<circle cy="1706" cx="724.5" r="2.39365368241" style="stroke:black; stroke-width:1; fill:#ffcc00; "  />
<path style="stroke:black; stroke-width:1; fill:red; " d="M 652.912741 1721.000000 a 56.587259,56.587259 0 0,0 0.750228,9.183889 L 709.5  1721 z"  />
<path style="stroke:black; stroke-width:1; fill:lime; " d="M 667.912741 1706.000000 a 56.587259,56.587259 0 0,1 2.830103,-17.671617 L 724.5  1706 z"  />
<path style="stroke:black; stroke-width:1; fill:blue; " d="M 667.912741 1706.000000 a 56.587259,56.587259 0 0,1 0.524940,-7.689883 L 724.5  1706 z"  />
<path style="stroke:black; stroke-width:1; fill:cyan; " d="M 667.912741 1706.000000 a 56.587259,56.587259 0 0,1 0.001397,-0.397613 L 724.5  1706 z"  />
</g>
<g  >
<circle cy="1525" cx="1236.0" r="55.9956385253" style="stroke:black; stroke-width:1; fill:white; "  />
<circle cy="1525" cx="1236.0" r="52.1616078129" style="stroke:black; stroke-width:1; fill:#ccccdc; "  />
<circle cy="1525" cx="1236.0" r="5.00668588359" style="stroke:black; stroke-width:1; fill:#ffcc00; "  />
<path style="stroke:black; stroke-width:1; fill:red; " d="M 1165.004361 1540.000000 a 55.995639,55.995639 0 0,0 2.843361,17.616666 L 1221.0  1540 z"  />
<path style="stroke:black; stroke-width:1; fill:lime; " d="M 1180.004361 1525.000000 a 55.995639,55.995639 0 0,1 5.010256,-23.151723 L 1236.0  1525 z"  />
<path style="stroke:black; stroke-width:1; fill:blue; " d="M 1180.004361 1525.000000 a 55.995639,55.995639 0 0,1 0.971760,-10.386737 L 1236.0  1525 z"  />
<path style="stroke:black; stroke-width:1; fill:cyan; " d="M 1180.004361 1525.000000 a 55.995639,55.995639 0 0,1 0.000519,-0.241089 L 1236.0  1525 z"  />
</g>
<g  >
<circle cy="1450" cx="2207.25" r="56.1552888422" style="stroke:black; stroke-width:1; fill:white; "  />
<circle cy="1450" cx="2207.25" r="54.1423615973" style="stroke:black; stroke-width:1; fill:#ccccdc; "  />
<circle cy="1450" cx="2207.25" r="7.37773613905" style="stroke:black; stroke-width:1; fill:#ffcc00; "  />
<path style="stroke:black; stroke-width:1; fill:red; " d="M 2136.094711 1465.000000 a 56.155289,56.155289 0 0,0 2.008780,14.885295 L 2192.25  1465 z"  />
<path style="stroke:black; stroke-width:1; fill:lime; " d="M 2151.094711 1450.000000 a 56.155289,56.155289 0 0,1 8.644589,-29.935762 L 2207.25  1450 z"  />
<path style="stroke:black; stroke-width:1; fill:blue; " d="M 2151.094711 1450.000000 a 56.155289,56.155289 0 0,1 2.574163,-16.807123 L 2207.25  1450 z"  />
<path style="stroke:black; stroke-width:1; fill:cyan; " d="M 2151.094711 1450.000000 a 56.155289,56.155289 0 0,1 0.000229,-0.160270 L 2207.25  1450 z"  />
</g>
<g  >
<circle cy="1400" cx="2575.5" r="61.7961463568" style="stroke:black; stroke-width:1; fill:#ccccdc; "  />
<circle cy="1400" cx="2575.5" r="20.6257402991" style="stroke:black; stroke-width:1; fill:#ffcc00; "  />
<path style="stroke:black; stroke-width:1; fill:red; " d="M 2498.703854 1415.000000 a 61.796146,61.796146 0 0,0 0.339541,6.469112 L 2560.5  1415 z"  />
<path style="stroke:black; stroke-width:1; fill:lime; " d="M 2513.703854 1400.000000 a 61.796146,61.796146 0 0,1 51.575694,-60.945107 L 2575.5  1400 z"  />
<path style="stroke:black; stroke-width:1; fill:blue; " d="M 2513.703854 1400.000000 a 61.796146,61.796146 0 0,1 39.380964,-57.587527 L 2575.5  1400 z"  />
<path style="stroke:black; stroke-width:1; fill:cyan; " d="M 2513.703854 1400.000000 a 61.796146,61.796146 0 0,1 0.001073,-0.364098 L 2575.5  1400 z"  />
</g>
<g  >
<circle cy="1500" cx="2592.0" r="61.7323702353" style="stroke:black; stroke-width:1; fill:#ccccdc; "  />
<circle cy="1500" cx="2592.0" r="21.9381983743" style="stroke:black; stroke-width:1; fill:#ffcc00; "  />
<path style="stroke:black; stroke-width:1; fill:red; " d="M 2515.267630 1515.000000 a 61.732370,61.732370 0 0,0 0.841633,10.158922 L 2577.0  1515 z"  />
<path style="stroke:black; stroke-width:1; fill:lime; " d="M 2530.267630 1500.000000 a 61.732370,61.732370 0 0,1 58.144300,-61.628007 L 2592.0  1500 z"  />
<path style="stroke:black; stroke-width:1; fill:blue; " d="M 2530.267630 1500.000000 a 61.732370,61.732370 0 0,1 42.226703,-58.569740 L 2592.0  1500 z"  />
<path style="stroke:black; stroke-width:1; fill:cyan; " d="M 2530.267630 1500.000000 a 61.732370,61.732370 0 0,1 0.049746,-2.477775 L 2592.0  1500 z"  />
</g>
<g  >
<circle cy="1600" cx="2507.5" r="59.7994384494" style="stroke:black; stroke-width:1; fill:#ccccdc; "  />
<circle cy="1600" cx="2507.5" r="18.2295233392" style="stroke:black; stroke-width:1; fill:#ffcc00; "  />
<path style="stroke:black; stroke-width:1; fill:red; " d="M 2432.700562 1615.000000 a 59.799438,59.799438 0 0,0 0.912485,10.406707 L 2492.5  1615 z"  />
<path style="stroke:black; stroke-width:1; fill:lime; " d="M 2447.700562 1600.000000 a 59.799438,59.799438 0 0,1 93.375290,-49.483685 L 2507.5  1600 z"  />
<path style="stroke:black; stroke-width:1; fill:blue; " d="M 2447.700562 1600.000000 a 59.799438,59.799438 0 0,1 24.958361,-48.601154 L 2507.5  1600 z"  />
<path style="stroke:black; stroke-width:1; fill:cyan; " d="M 2447.700562 1600.000000 a 59.799438,59.799438 0 0,1 0.001184,-0.376255 L 2507.5  1600 z"  />
</g>
<g  >
<circle cy="1887" cx="2918.0" r="58.9611857238" style="stroke:black; stroke-width:1; fill:white; "  />
<circle cy="1887" cx="2918.0" r="54.5508895295" style="stroke:black; stroke-width:1; fill:#ccccdc; "  />
<circle cy="1887" cx="2918.0" r="7.47418122775" style="stroke:black; stroke-width:1; fill:#ffcc00; "  />
<path style="stroke:black; stroke-width:1; fill:red; " d="M 2844.038814 1902.000000 a 58.961186,58.961186 0 0,0 1.984436,15.168107 L 2903.0  1902 z"  />
<path style="stroke:black; stroke-width:1; fill:lime; " d="M 2859.038814 1887.000000 a 58.961186,58.961186 0 0,1 50.405343,-58.337115 L 2918.0  1887 z"  />
<path style="stroke:black; stroke-width:1; fill:blue; " d="M 2859.038814 1887.000000 a 58.961186,58.961186 0 0,1 16.059828,-40.446197 L 2918.0  1887 z"  />
<path style="stroke:black; stroke-width:1; fill:cyan; " d="M 2859.038814 1887.000000 a 58.961186,58.961186 0 0,1 0.011114,-1.144749 L 2918.0  1887 z"  />
</g>
<g  >
<circle cy="1750" cx="2960.25" r="59.3968654351" style="stroke:black; stroke-width:1; fill:white; "  />
<circle cy="1750" cx="2960.25" r="56.3017673041" style="stroke:black; stroke-width:1; fill:#ccccdc; "  />
<circle cy="1750" cx="2960.25" r="4.55738083481" style="stroke:black; stroke-width:1; fill:#ffcc00; "  />
<path style="stroke:black; stroke-width:1; fill:red; " d="M 2885.853135 1765.000000 a 59.396865,59.396865 0 0,0 0.111289,3.634284 L 2945.25  1765 z"  />
<path style="stroke:black; stroke-width:1; fill:lime; " d="M 2900.853135 1750.000000 a 59.396865,59.396865 0 0,1 1.593294,-13.665093 L 2960.25  1750 z"  />
<path style="stroke:black; stroke-width:1; fill:blue; " d="M 2900.853135 1750.000000 a 59.396865,59.396865 0 0,1 0.694415,-9.055932 L 2960.25  1750 z"  />
<path style="stroke:black; stroke-width:1; fill:cyan; " d="M 2900.853135 1750.000000 a 59.396865,59.396865 0 0,1 0.000193,-0.151523 L 2960.25  1750 z"  />
</g>
<g  >
<circle cy="1700" cx="3116.0" r="62.8647468134" style="stroke:black; stroke-width:1; fill:#ccccdc; "  />
<circle cy="1700" cx="3116.0" r="16.2124763228" style="stroke:black; stroke-width:1; fill:#ffcc00; "  />
<path style="stroke:black; stroke-width:1; fill:red; " d="M 3038.135253 1715.000000 a 62.864747,62.864747 0 0,0 1.754968,14.750297 L 3101.0  1715 z"  />
<path style="stroke:black; stroke-width:1; fill:lime; " d="M 3053.135253 1700.000000 a 62.864747,62.864747 0 0,1 40.830239,-58.876624 L 3116.0  1700 z"  />
<path style="stroke:black; stroke-width:1; fill:blue; " d="M 3053.135253 1700.000000 a 62.864747,62.864747 0 0,1 24.328279,-49.668068 L 3116.0  1700 z"  />
<path style="stroke:black; stroke-width:1; fill:cyan; " d="M 3053.135253 1700.000000 a 62.864747,62.864747 0 0,1 0.001997,-0.501070 L 3116.0  1700 z"  />
</g>
<g  >
<circle cy="1800" cx="3105.25" r="64.7614936545" style="stroke:black; stroke-width:1; fill:#ccccdc; "  />
<circle cy="1800" cx="3105.25" r="19.9191684849" style="stroke:black; stroke-width:1; fill:#ffcc00; "  />
<path style="stroke:black; stroke-width:1; fill:red; " d="M 3025.488506 1815.000000 a 64.761494,64.761494 0 0,0 1.112473,11.952121 L 3090.25  1815 z"  />
<path style="stroke:black; stroke-width:1; fill:lime; " d="M 3040.488506 1800.000000 a 64.761494,64.761494 0 0,1 57.895335,-64.396482 L 3105.25  1800 z"  />
<path style="stroke:black; stroke-width:1; fill:blue; " d="M 3040.488506 1800.000000 a 64.761494,64.761494 0 0,1 40.299680,-59.963912 L 3105.25  1800 z"  />
<path style="stroke:black; stroke-width:1; fill:cyan; " d="M 3040.488506 1800.000000 a 64.761494,64.761494 0 0,1 0.006300,-0.903285 L 3105.25  1800 z"  />
</g>
<g  >
<circle cy="2025" cx="2947.0" r="59.1733751403" style="stroke:black; stroke-width:1; fill:white; "  />
<circle cy="2025" cx="2947.0" r="55.5461765271" style="stroke:black; stroke-width:1; fill:#ccccdc; "  />
<circle cy="2025" cx="2947.0" r="2.67618617423" style="stroke:black; stroke-width:1; fill:#ffcc00; "  />
<path style="stroke:black; stroke-width:1; fill:red; " d="M 2872.826625 2040.000000 a 59.173375,59.173375 0 0,0 0.200047,4.861568 L 2932.0  2040 z"  />
<path style="stroke:black; stroke-width:1; fill:lime; " d="M 2887.826625 2025.000000 a 59.173375,59.173375 0 0,1 0.656338,-8.788895 L 2947.0  2025 z"  />
<path style="stroke:black; stroke-width:1; fill:blue; " d="M 2887.826625 2025.000000 a 59.173375,59.173375 0 0,1 0.478300,-7.508428 L 2947.0  2025 z"  />
<path style="stroke:black; stroke-width:1; fill:cyan; " d="M 2887.826625 2025.000000 a 59.173375,59.173375 0 0,1 0.000195,-0.152095 L 2947.0  2025 z"  />
</g>
<g  >
<circle cy="1950" cx="2991.25" r="59.5293537919" style="stroke:black; stroke-width:1; fill:white; "  />
<circle cy="1950" cx="2991.25" r="56.4859161352" style="stroke:black; stroke-width:1; fill:#ccccdc; "  />
<circle cy="1950" cx="2991.25" r="3.59048052361" style="stroke:black; stroke-width:1; fill:#ffcc00; "  />
<path style="stroke:black; stroke-width:1; fill:red; " d="M 2916.720646 1965.000000 a 59.529354,59.529354 0 0,0 0.115200,3.701665 L 2976.25  1965 z"  />
<path style="stroke:black; stroke-width:1; fill:lime; " d="M 2931.720646 1950.000000 a 59.529354,59.529354 0 0,1 1.048205,-11.122015 L 2991.25  1950 z"  />
<path style="stroke:black; stroke-width:1; fill:blue; " d="M 2931.720646 1950.000000 a 59.529354,59.529354 0 0,1 0.558944,-8.138472 L 2991.25  1950 z"  />
<path style="stroke:black; stroke-width:1; fill:cyan; " d="M 2931.720646 1950.000000 a 59.529354,59.529354 0 0,1 0.000048,-0.075593 L 2991.25  1950 z"  />
</g>
<g  >
<circle cy="1900" cx="3142.0" r="61.8714333818" style="stroke:black; stroke-width:1; fill:#ccccdc; "  />
<circle cy="1900" cx="3142.0" r="15.7645311899" style="stroke:black; stroke-width:1; fill:#ffcc00; "  />
<path style="stroke:black; stroke-width:1; fill:red; " d="M 3065.128567 1915.000000 a 61.871433,61.871433 0 0,0 2.610657,17.782987 L 3127.0  1915 z"  />
<path style="stroke:black; stroke-width:1; fill:lime; " d="M 3080.128567 1900.000000 a 61.871433,61.871433 0 0,1 35.455490,-55.948836 L 3142.0  1900 z"  />
<path style="stroke:black; stroke-width:1; fill:blue; " d="M 3080.128567 1900.000000 a 61.871433,61.871433 0 0,1 16.948740,-42.544399 L 3142.0  1900 z"  />
<path style="stroke:black; stroke-width:1; fill:cyan; " d="M 3080.128567 1900.000000 a 61.871433,61.871433 0 0,1 0.022613,-1.672620 L 3142.0  1900 z"  />
</g>
<g  >
<circle cy="2000" cx="3142.0" r="63.0240423548" style="stroke:black; stroke-width:1; fill:#ccccdc; "  />
<circle cy="2000" cx="3142.0" r="18.0320145501" style="stroke:black; stroke-width:1; fill:#ffcc00; "  />
<path style="stroke:black; stroke-width:1; fill:red; " d="M 3063.975958 2015.000000 a 63.024042,63.024042 0 0,0 0.703420,9.389884 L 3127.0  2015 z"  />
<path style="stroke:black; stroke-width:1; fill:lime; " d="M 3078.975958 2000.000000 a 63.024042,63.024042 0 0,1 38.848077,-58.202686 L 3142.0  2000 z"  />
<path style="stroke:black; stroke-width:1; fill:blue; " d="M 3078.975958 2000.000000 a 63.024042,63.024042 0 0,1 20.352846,-46.381019 L 3142.0  2000 z"  />
<path style="stroke:black; stroke-width:1; fill:cyan; " d="M 3078.975958 2000.000000 a 63.024042,63.024042 0 0,1 0.001982,-0.499804 L 3142.0  2000 z"  />
</g>
<g  >
<circle cy="2100" cx="3105.75" r="63.482610938" style="stroke:black; stroke-width:1; fill:#ccccdc; "  />
<circle cy="2100" cx="3105.75" r="17.6303602873" style="stroke:black; stroke-width:1; fill:#ffcc00; "  />
<path style="stroke:black; stroke-width:1; fill:red; " d="M 3027.267389 2115.000000 a 63.482611,63.482611 0 0,0 0.341984,6.580514 L 3090.75  2115 z"  />
<path style="stroke:black; stroke-width:1; fill:lime; " d="M 3042.267389 2100.000000 a 63.482611,63.482611 0 0,1 38.336023,-58.289716 L 3105.75  2100 z"  />
<path style="stroke:black; stroke-width:1; fill:blue; " d="M 3042.267389 2100.000000 a 63.482611,63.482611 0 0,1 25.424070,-50.809343 L 3105.75  2100 z"  />
<path style="stroke:black; stroke-width:1; fill:cyan; " d="M 3042.267389 2100.000000 a 63.482611,63.482611 0 0,1 0.000356,-0.212656 L 3105.75  2100 z"  />
</g>
</svg>
